REM DIRINDEX 1\3,1\2\4,1\2\5,1\2\6
REM DIRNAME folder01,folder02,folder03,folder04,folder05,folder06
TITLE ""
FILE "150.mp3" MP3
  TRACK 01 AUDIO
    TITLE "0:"
    INDEX 01 00:00:00
  TRACK 02 AUDIO
    TITLE "4:cjc137_6625"
    INDEX 01 00:00:03
  TRACK 03 AUDIO
    TITLE "0:"
    INDEX 01 00:01:13
  TRACK 04 AUDIO
    TITLE "6:cjc137_6626"
    INDEX 01 00:01:21
  TRACK 05 AUDIO
    TITLE "0:"
    INDEX 01 00:02:22
  TRACK 06 AUDIO
    TITLE "5:cjc137_6627"
    INDEX 01 00:02:32
  TRACK 07 AUDIO
    TITLE "0:"
    INDEX 01 00:03:43
  TRACK 08 AUDIO
    TITLE "4:cjc137_6628"
    INDEX 01 00:04:54
  TRACK 09 AUDIO
    TITLE "0:"
    INDEX 01 00:06:06
  TRACK 10 AUDIO
    TITLE "6:cjc137_6629"
    INDEX 01 00:06:16
  TRACK 11 AUDIO
    TITLE "0:"
    INDEX 01 00:07:25
  TRACK 12 AUDIO
    TITLE "5:cjc137_6630"
    INDEX 01 00:07:31
  TRACK 13 AUDIO
    TITLE "0:"
    INDEX 01 00:08:58
  TRACK 14 AUDIO
    TITLE "4:cjc137_6631"
    INDEX 01 00:09:67
  TRACK 15 AUDIO
    TITLE "0:"
    INDEX 01 00:11:09
  TRACK 16 AUDIO
    TITLE "6:cjc137_6632"
    INDEX 01 00:11:13
  TRACK 17 AUDIO
    TITLE "0:"
    INDEX 01 00:12:22
  TRACK 18 AUDIO
    TITLE "5:cjc137_6633"
    INDEX 01 00:12:26
  TRACK 19 AUDIO
    TITLE "0:"
    INDEX 01 00:13:41
  TRACK 20 AUDIO
    TITLE "4:cjc137_6634"
    INDEX 01 00:14:54
  TRACK 21 AUDIO
    TITLE "0:"
    INDEX 01 00:15:64
  TRACK 22 AUDIO
    TITLE "6:cjc137_6635"
    INDEX 01 00:15:70
  TRACK 23 AUDIO
    TITLE "0:"
    INDEX 01 00:17:31
  TRACK 24 AUDIO
    TITLE "5:cjc137_6636"
    INDEX 01 00:17:41
  TRACK 25 AUDIO
    TITLE "0:"
    INDEX 01 00:18:52
  TRACK 26 AUDIO
    TITLE "4:cjc137_6637"
    INDEX 01 00:19:60
  TRACK 27 AUDIO
    TITLE "0:"
    INDEX 01 00:20:67
  TRACK 28 AUDIO
    TITLE "6:cjc137_6638"
    INDEX 01 00:21:02
  TRACK 29 AUDIO
    TITLE "0:"
    INDEX 01 00:22:30
  TRACK 30 AUDIO
    TITLE "5:cjc137_6639"
    INDEX 01 00:22:34
  TRACK 31 AUDIO
    TITLE "0:"
    INDEX 01 00:23:46
  TRACK 32 AUDIO
    TITLE "4:cjc137_6640"
    INDEX 01 00:24:57
  TRACK 33 AUDIO
    TITLE "0:"
    INDEX 01 00:26:01
  TRACK 34 AUDIO
    TITLE "6:cjc137_6641"
    INDEX 01 00:26:07
  TRACK 35 AUDIO
    TITLE "0:"
    INDEX 01 00:27:08
  TRACK 36 AUDIO
    TITLE "5:cjc137_6642"
    INDEX 01 00:27:14
  TRACK 37 AUDIO
    TITLE "0:"
    INDEX 01 00:28:31
  TRACK 38 AUDIO
    TITLE "4:cjc137_6643"
    INDEX 01 00:29:40
  TRACK 39 AUDIO
    TITLE "0:"
    INDEX 01 00:30:55
  TRACK 40 AUDIO
    TITLE "6:cjc137_6644"
    INDEX 01 00:30:65
  TRACK 41 AUDIO
    TITLE "0:"
    INDEX 01 00:32:19
  TRACK 42 AUDIO
    TITLE "5:cjc137_6645"
    INDEX 01 00:32:27
  TRACK 43 AUDIO
    TITLE "0:"
    INDEX 01 00:33:40
  TRACK 44 AUDIO
    TITLE "4:cjc137_6646"
    INDEX 01 00:34:51
  TRACK 45 AUDIO
    TITLE "0:"
    INDEX 01 00:36:01
  TRACK 46 AUDIO
    TITLE "6:cjc137_6647"
    INDEX 01 00:36:07
  TRACK 47 AUDIO
    TITLE "0:"
    INDEX 01 00:37:28
  TRACK 48 AUDIO
    TITLE "5:cjc137_6648"
    INDEX 01 00:37:36
  TRACK 49 AUDIO
    TITLE "0:"
    INDEX 01 00:38:57
  TRACK 50 AUDIO
    TITLE "4:cjc137_6649"
    INDEX 01 00:39:66
  TRACK 51 AUDIO
    TITLE "0:"
    INDEX 01 00:41:02
  TRACK 52 AUDIO
    TITLE "6:cjc137_6650"
    INDEX 01 00:41:10
  TRACK 53 AUDIO
    TITLE "0:"
    INDEX 01 00:42:21
  TRACK 54 AUDIO
    TITLE "5:cjc137_6651"
    INDEX 01 00:42:29
  TRACK 55 AUDIO
    TITLE "0:"
    INDEX 01 00:43:40
  TRACK 56 AUDIO
    TITLE "4:cjc137_6652"
    INDEX 01 00:44:48
  TRACK 57 AUDIO
    TITLE "0:"
    INDEX 01 00:45:67
  TRACK 58 AUDIO
    TITLE "6:cjc137_6653"
    INDEX 01 00:45:73
  TRACK 59 AUDIO
    TITLE "0:"
    INDEX 01 00:47:34
  TRACK 60 AUDIO
    TITLE "5:cjc137_6654"
    INDEX 01 00:47:40
  TRACK 61 AUDIO
    TITLE "0:"
    INDEX 01 00:48:59
  TRACK 62 AUDIO
    TITLE "4:cjc137_6655"
    INDEX 01 00:49:65
  TRACK 63 AUDIO
    TITLE "0:"
    INDEX 01 00:50:70
  TRACK 64 AUDIO
    TITLE "6:cjc137_6656"
    INDEX 01 00:51:01
  TRACK 65 AUDIO
    TITLE "0:"
    INDEX 01 00:51:71
  TRACK 66 AUDIO
    TITLE "5:cjc137_6657"
    INDEX 01 00:52:00
  TRACK 67 AUDIO
    TITLE "0:"
    INDEX 01 00:53:04
  TRACK 68 AUDIO
    TITLE "4:cjc137_6658"
    INDEX 01 00:54:15
  TRACK 69 AUDIO
    TITLE "0:"
    INDEX 01 00:55:20
  TRACK 70 AUDIO
    TITLE "6:cjc137_6659"
    INDEX 01 00:55:28
  TRACK 71 AUDIO
    TITLE "0:"
    INDEX 01 00:56:39
  TRACK 72 AUDIO
    TITLE "5:cjc137_6660"
    INDEX 01 00:56:47
  TRACK 73 AUDIO
    TITLE "0:"
    INDEX 01 00:57:52
